<svg width="222" height="190" viewBox="0 0 222 190" fill="none" xmlns="http://www.w3.org/2000/svg">
<path d="M75.0366 41.1824V99.9681H158.762V34.9475L119.126 6L75.0366 41.1824Z" stroke="white" stroke-width="8.90693"/>
<path d="M44.3577 174.596H36.7856L46.6209 145.446H56.0006L65.8359 174.596H58.2638L51.4175 152.79H51.1898L44.3577 174.596ZM43.3472 163.124H59.1747V168.475H43.3472V163.124ZM94.0642 156.007H86.9476C86.8527 155.276 86.6581 154.617 86.364 154.029C86.0698 153.44 85.6808 152.937 85.1968 152.52C84.7129 152.102 84.1388 151.784 83.4746 151.566C82.8199 151.338 82.094 151.225 81.2969 151.225C79.8831 151.225 78.6637 151.571 77.6389 152.264C76.6236 152.956 75.8408 153.957 75.2904 155.267C74.7496 156.576 74.4791 158.161 74.4791 160.021C74.4791 161.957 74.7543 163.579 75.3047 164.889C75.8645 166.189 76.6473 167.171 77.6532 167.835C78.6685 168.49 79.8688 168.817 81.2542 168.817C82.0323 168.817 82.7392 168.717 83.375 168.518C84.0202 168.319 84.5848 168.029 85.0687 167.65C85.5622 167.261 85.9655 166.791 86.2786 166.241C86.6012 165.681 86.8242 165.05 86.9476 164.348L94.0642 164.39C93.9409 165.681 93.5661 166.953 92.9398 168.205C92.323 169.458 91.4738 170.601 90.392 171.635C89.3103 172.66 87.9913 173.476 86.4352 174.083C84.8885 174.691 83.114 174.994 81.1119 174.994C78.474 174.994 76.1112 174.416 74.0237 173.258C71.9456 172.091 70.304 170.392 69.0989 168.162C67.8938 165.932 67.2913 163.219 67.2913 160.021C67.2913 156.814 67.9033 154.095 69.1274 151.865C70.3514 149.635 72.0073 147.941 74.0948 146.784C76.1824 145.626 78.5214 145.047 81.1119 145.047C82.8768 145.047 84.5089 145.294 86.0081 145.787C87.5074 146.271 88.8264 146.983 89.965 147.922C91.1037 148.852 92.0289 149.996 92.7405 151.353C93.4522 152.71 93.8934 154.261 94.0642 156.007ZM124.556 156.007H117.439C117.344 155.276 117.15 154.617 116.855 154.029C116.561 153.44 116.172 152.937 115.688 152.52C115.204 152.102 114.63 151.784 113.966 151.566C113.311 151.338 112.585 151.225 111.788 151.225C110.374 151.225 109.155 151.571 108.13 152.264C107.115 152.956 106.332 153.957 105.782 155.267C105.241 156.576 104.971 158.161 104.971 160.021C104.971 161.957 105.246 163.579 105.796 164.889C106.356 166.189 107.139 167.171 108.145 167.835C109.16 168.49 110.36 168.817 111.746 168.817C112.524 168.817 113.231 168.717 113.866 168.518C114.512 168.319 115.076 168.029 115.56 167.65C116.054 167.261 116.457 166.791 116.77 166.241C117.093 165.681 117.316 165.05 117.439 164.348L124.556 164.39C124.432 165.681 124.058 166.953 123.431 168.205C122.814 169.458 121.965 170.601 120.883 171.635C119.802 172.66 118.483 173.476 116.927 174.083C115.38 174.691 113.605 174.994 111.603 174.994C108.965 174.994 106.603 174.416 104.515 173.258C102.437 172.091 100.795 170.392 99.5903 168.162C98.3853 165.932 97.7827 163.219 97.7827 160.021C97.7827 156.814 98.3947 154.095 99.6188 151.865C100.843 149.635 102.499 147.941 104.586 146.784C106.674 145.626 109.013 145.047 111.603 145.047C113.368 145.047 115 145.294 116.5 145.787C117.999 146.271 119.318 146.983 120.456 147.922C121.595 148.852 122.52 149.996 123.232 151.353C123.944 152.71 124.385 154.261 124.556 156.007ZM156.1 160.021C156.1 163.228 155.484 165.947 154.25 168.177C153.016 170.406 151.346 172.1 149.24 173.258C147.143 174.416 144.79 174.994 142.18 174.994C139.561 174.994 137.203 174.411 135.106 173.244C133.009 172.077 131.344 170.383 130.11 168.162C128.886 165.932 128.274 163.219 128.274 160.021C128.274 156.814 128.886 154.095 130.11 151.865C131.344 149.635 133.009 147.941 135.106 146.784C137.203 145.626 139.561 145.047 142.18 145.047C144.79 145.047 147.143 145.626 149.24 146.784C151.346 147.941 153.016 149.635 154.25 151.865C155.484 154.095 156.1 156.814 156.1 160.021ZM148.898 160.021C148.898 158.123 148.628 156.519 148.087 155.21C147.556 153.901 146.787 152.909 145.781 152.235C144.785 151.561 143.585 151.225 142.18 151.225C140.785 151.225 139.585 151.561 138.579 152.235C137.573 152.909 136.8 153.901 136.259 155.21C135.728 156.519 135.462 158.123 135.462 160.021C135.462 161.919 135.728 163.522 136.259 164.832C136.8 166.141 137.573 167.133 138.579 167.807C139.585 168.48 140.785 168.817 142.18 168.817C143.585 168.817 144.785 168.48 145.781 167.807C146.787 167.133 147.556 166.141 148.087 164.832C148.628 163.522 148.898 161.919 148.898 160.021ZM185.023 145.446V174.596H179.045L167.444 157.772H167.259V174.596H160.214V145.446H166.277L177.749 162.241H177.991V145.446H185.023Z" fill="white"/>
<path d="M2 136.041C2 136.041 80.0706 116.55 112.891 117.337C145.717 118.124 220.22 136.041 220.22 136.041M26.4941 111.547C26.4941 111.547 79.6728 99.5228 112.891 99.5228C146.11 99.5228 202.851 111.547 202.851 111.547" stroke="white" stroke-width="8.90693"/>
<path d="M82.4481 186.896V177.179H85.7313C86.4904 177.179 87.1135 177.309 87.6006 177.568C88.0877 177.824 88.4483 178.177 88.6823 178.626C88.9164 179.075 89.0334 179.586 89.0334 180.158C89.0334 180.731 88.9164 181.239 88.6823 181.681C88.4483 182.124 88.0893 182.472 87.6053 182.725C87.1214 182.975 86.503 183.1 85.7503 183.1H83.0934V182.037H85.7123C86.231 182.037 86.6485 181.961 86.9648 181.81C87.2843 181.658 87.5152 181.443 87.6575 181.164C87.803 180.883 87.8758 180.547 87.8758 180.158C87.8758 179.769 87.803 179.429 87.6575 179.138C87.512 178.847 87.2795 178.623 86.9601 178.465C86.6406 178.303 86.2184 178.223 85.6933 178.223H83.6247V186.896H82.4481ZM87.0218 182.531L89.413 186.896H88.0466L85.6933 182.531H87.0218ZM90.9941 186.896V177.179H96.8582V178.223H92.1707V181.506H96.5546V182.55H92.1707V185.852H96.9341V186.896H90.9941ZM99.3775 186.896H98.144L101.712 177.179H102.926L106.494 186.896H105.261L102.357 178.716H102.281L99.3775 186.896ZM99.833 183.1H104.805V184.144H99.833V183.1ZM108.008 186.896V177.179H109.184V185.852H113.701V186.896H108.008ZM124.594 179.608C124.537 179.127 124.306 178.754 123.902 178.488C123.497 178.223 123 178.09 122.412 178.09C121.982 178.09 121.605 178.159 121.283 178.299C120.963 178.438 120.713 178.629 120.533 178.873C120.356 179.116 120.267 179.393 120.267 179.703C120.267 179.962 120.329 180.185 120.452 180.372C120.579 180.555 120.74 180.709 120.936 180.832C121.132 180.952 121.338 181.052 121.553 181.131C121.768 181.207 121.966 181.269 122.146 181.316L123.133 181.582C123.386 181.648 123.668 181.74 123.978 181.857C124.291 181.974 124.59 182.134 124.874 182.336C125.162 182.535 125.399 182.792 125.586 183.105C125.773 183.418 125.866 183.802 125.866 184.258C125.866 184.783 125.728 185.257 125.453 185.681C125.181 186.105 124.783 186.442 124.257 186.692C123.736 186.941 123.101 187.066 122.355 187.066C121.659 187.066 121.057 186.954 120.547 186.73C120.041 186.505 119.643 186.192 119.352 185.79C119.064 185.388 118.901 184.922 118.863 184.39H120.078C120.109 184.757 120.233 185.061 120.448 185.301C120.666 185.539 120.941 185.716 121.273 185.833C121.608 185.947 121.969 186.004 122.355 186.004C122.804 186.004 123.207 185.931 123.565 185.785C123.922 185.637 124.205 185.431 124.414 185.169C124.623 184.903 124.727 184.593 124.727 184.239C124.727 183.916 124.637 183.654 124.457 183.451C124.276 183.249 124.039 183.084 123.745 182.958C123.451 182.831 123.133 182.72 122.791 182.626L121.596 182.284C120.837 182.066 120.236 181.754 119.793 181.349C119.35 180.944 119.129 180.415 119.129 179.76C119.129 179.216 119.276 178.741 119.57 178.337C119.867 177.929 120.266 177.612 120.766 177.388C121.268 177.16 121.83 177.046 122.45 177.046C123.076 177.046 123.633 177.158 124.12 177.383C124.607 177.604 124.993 177.908 125.278 178.294C125.565 178.68 125.717 179.118 125.733 179.608H124.594ZM127.269 178.223V177.179H134.556V178.223H131.501V186.896H130.324V178.223H127.269ZM135.636 186.896H134.402L137.97 177.179H139.185L142.753 186.896H141.519L138.615 178.716H138.539L135.636 186.896ZM136.091 183.1H141.064V184.144H136.091V183.1ZM142.6 178.223V177.179H149.887V178.223H146.832V186.896H145.655V178.223H142.6ZM151.703 186.896V177.179H157.567V178.223H152.88V181.506H157.263V182.55H152.88V185.852H157.643V186.896H151.703Z" fill="white"/>
</svg>
