<svg width="222" height="191" viewBox="0 0 222 191" fill="none" xmlns="http://www.w3.org/2000/svg">
<path d="M75.0366 41.7543V100.54H158.762V35.5195L119.126 6.57195L75.0366 41.7543Z" stroke="black" stroke-width="8.90693"/>
<path d="M44.3577 175.168H36.7856L46.6209 146.018H56.0006L65.8359 175.168H58.2638L51.4175 153.362H51.1898L44.3577 175.168ZM43.3472 163.696H59.1747V169.047H43.3472V163.696ZM94.0642 156.579H86.9476C86.8527 155.848 86.6581 155.189 86.364 154.601C86.0698 154.012 85.6808 153.509 85.1968 153.092C84.7129 152.674 84.1388 152.356 83.4746 152.138C82.8199 151.91 82.094 151.797 81.2969 151.797C79.8831 151.797 78.6637 152.143 77.6389 152.836C76.6236 153.528 75.8408 154.529 75.2904 155.839C74.7496 157.148 74.4791 158.733 74.4791 160.593C74.4791 162.529 74.7543 164.151 75.3047 165.461C75.8645 166.761 76.6473 167.743 77.6532 168.407C78.6685 169.062 79.8688 169.389 81.2542 169.389C82.0323 169.389 82.7392 169.289 83.375 169.09C84.0202 168.891 84.5848 168.601 85.0687 168.222C85.5622 167.833 85.9655 167.363 86.2786 166.813C86.6012 166.253 86.8242 165.622 86.9476 164.92L94.0642 164.962C93.9409 166.253 93.5661 167.524 92.9398 168.777C92.323 170.029 91.4738 171.173 90.392 172.207C89.3103 173.232 87.9913 174.048 86.4352 174.655C84.8885 175.263 83.114 175.566 81.1119 175.566C78.474 175.566 76.1112 174.987 74.0237 173.83C71.9456 172.663 70.304 170.964 69.0989 168.734C67.8938 166.504 67.2913 163.791 67.2913 160.593C67.2913 157.386 67.9033 154.667 69.1274 152.437C70.3514 150.207 72.0073 148.513 74.0948 147.356C76.1824 146.198 78.5214 145.619 81.1119 145.619C82.8768 145.619 84.5089 145.866 86.0081 146.359C87.5074 146.843 88.8264 147.555 89.965 148.494C91.1037 149.424 92.0289 150.568 92.7405 151.925C93.4522 153.282 93.8934 154.833 94.0642 156.579ZM124.556 156.579H117.439C117.344 155.848 117.15 155.189 116.855 154.601C116.561 154.012 116.172 153.509 115.688 153.092C115.204 152.674 114.63 152.356 113.966 152.138C113.311 151.91 112.585 151.797 111.788 151.797C110.374 151.797 109.155 152.143 108.13 152.836C107.115 153.528 106.332 154.529 105.782 155.839C105.241 157.148 104.971 158.733 104.971 160.593C104.971 162.529 105.246 164.151 105.796 165.461C106.356 166.761 107.139 167.743 108.145 168.407C109.16 169.062 110.36 169.389 111.746 169.389C112.524 169.389 113.231 169.289 113.866 169.09C114.512 168.891 115.076 168.601 115.56 168.222C116.054 167.833 116.457 167.363 116.77 166.813C117.093 166.253 117.316 165.622 117.439 164.92L124.556 164.962C124.432 166.253 124.058 167.524 123.431 168.777C122.814 170.029 121.965 171.173 120.883 172.207C119.802 173.232 118.483 174.048 116.927 174.655C115.38 175.263 113.605 175.566 111.603 175.566C108.965 175.566 106.603 174.987 104.515 173.83C102.437 172.663 100.795 170.964 99.5903 168.734C98.3853 166.504 97.7827 163.791 97.7827 160.593C97.7827 157.386 98.3947 154.667 99.6188 152.437C100.843 150.207 102.499 148.513 104.586 147.356C106.674 146.198 109.013 145.619 111.603 145.619C113.368 145.619 115 145.866 116.5 146.359C117.999 146.843 119.318 147.555 120.456 148.494C121.595 149.424 122.52 150.568 123.232 151.925C123.944 153.282 124.385 154.833 124.556 156.579ZM156.1 160.593C156.1 163.8 155.484 166.519 154.25 168.748C153.016 170.978 151.346 172.672 149.24 173.83C147.143 174.987 144.79 175.566 142.18 175.566C139.561 175.566 137.203 174.983 135.106 173.816C133.009 172.648 131.344 170.955 130.11 168.734C128.886 166.504 128.274 163.791 128.274 160.593C128.274 157.386 128.886 154.667 130.11 152.437C131.344 150.207 133.009 148.513 135.106 147.356C137.203 146.198 139.561 145.619 142.18 145.619C144.79 145.619 147.143 146.198 149.24 147.356C151.346 148.513 153.016 150.207 154.25 152.437C155.484 154.667 156.1 157.386 156.1 160.593ZM148.898 160.593C148.898 158.695 148.628 157.091 148.087 155.782C147.556 154.472 146.787 153.481 145.781 152.807C144.785 152.133 143.585 151.797 142.18 151.797C140.785 151.797 139.585 152.133 138.579 152.807C137.573 153.481 136.8 154.472 136.259 155.782C135.728 157.091 135.462 158.695 135.462 160.593C135.462 162.491 135.728 164.094 136.259 165.404C136.8 166.713 137.573 167.705 138.579 168.378C139.585 169.052 140.785 169.389 142.18 169.389C143.585 169.389 144.785 169.052 145.781 168.378C146.787 167.705 147.556 166.713 148.087 165.404C148.628 164.094 148.898 162.491 148.898 160.593ZM185.023 146.018V175.168H179.045L167.444 158.344H167.259V175.168H160.214V146.018H166.277L177.749 162.813H177.991V146.018H185.023Z" fill="black"/>
<path d="M2 136.613C2 136.613 80.0706 117.121 112.891 117.909C145.717 118.696 220.22 136.613 220.22 136.613M26.4941 112.119C26.4941 112.119 79.6728 100.095 112.891 100.095C146.11 100.095 202.851 112.119 202.851 112.119" stroke="black" stroke-width="8.90693"/>
<path d="M82.4481 187.468V177.751H85.7313C86.4904 177.751 87.1135 177.881 87.6006 178.14C88.0877 178.396 88.4483 178.749 88.6823 179.198C88.9164 179.647 89.0334 180.158 89.0334 180.73C89.0334 181.303 88.9164 181.811 88.6823 182.253C88.4483 182.696 88.0893 183.044 87.6053 183.297C87.1214 183.547 86.503 183.672 85.7503 183.672H83.0934V182.609H85.7123C86.231 182.609 86.6485 182.533 86.9648 182.381C87.2843 182.23 87.5152 182.015 87.6575 181.736C87.803 181.455 87.8758 181.119 87.8758 180.73C87.8758 180.341 87.803 180.001 87.6575 179.71C87.512 179.419 87.2795 179.195 86.9601 179.037C86.6406 178.875 86.2184 178.795 85.6933 178.795H83.6247V187.468H82.4481ZM87.0218 183.103L89.413 187.468H88.0466L85.6933 183.103H87.0218ZM90.9941 187.468V177.751H96.8582V178.795H92.1707V182.078H96.5546V183.122H92.1707V186.424H96.9341V187.468H90.9941ZM99.3775 187.468H98.144L101.712 177.751H102.926L106.494 187.468H105.261L102.357 179.288H102.281L99.3775 187.468ZM99.833 183.672H104.805V184.716H99.833V183.672ZM108.008 187.468V177.751H109.184V186.424H113.701V187.468H108.008ZM124.594 180.18C124.537 179.699 124.306 179.326 123.902 179.06C123.497 178.795 123 178.662 122.412 178.662C121.982 178.662 121.605 178.731 121.283 178.871C120.963 179.01 120.713 179.201 120.533 179.445C120.356 179.688 120.267 179.965 120.267 180.275C120.267 180.534 120.329 180.757 120.452 180.944C120.579 181.127 120.74 181.281 120.936 181.404C121.132 181.524 121.338 181.624 121.553 181.703C121.768 181.779 121.966 181.841 122.146 181.888L123.133 182.154C123.386 182.22 123.668 182.312 123.978 182.429C124.291 182.546 124.59 182.706 124.874 182.908C125.162 183.107 125.399 183.364 125.586 183.677C125.773 183.99 125.866 184.374 125.866 184.83C125.866 185.355 125.728 185.829 125.453 186.253C125.181 186.677 124.783 187.014 124.257 187.264C123.736 187.513 123.101 187.638 122.355 187.638C121.659 187.638 121.057 187.526 120.547 187.301C120.041 187.077 119.643 186.764 119.352 186.362C119.064 185.96 118.901 185.494 118.863 184.962H120.078C120.109 185.329 120.233 185.633 120.448 185.873C120.666 186.111 120.941 186.288 121.273 186.405C121.608 186.519 121.969 186.576 122.355 186.576C122.804 186.576 123.207 186.503 123.565 186.357C123.922 186.209 124.205 186.003 124.414 185.741C124.623 185.475 124.727 185.165 124.727 184.811C124.727 184.488 124.637 184.225 124.457 184.023C124.276 183.821 124.039 183.656 123.745 183.53C123.451 183.403 123.133 183.292 122.791 183.198L121.596 182.856C120.837 182.638 120.236 182.326 119.793 181.921C119.35 181.516 119.129 180.987 119.129 180.332C119.129 179.788 119.276 179.313 119.57 178.909C119.867 178.501 120.266 178.184 120.766 177.96C121.268 177.732 121.83 177.618 122.45 177.618C123.076 177.618 123.633 177.73 124.12 177.955C124.607 178.176 124.993 178.48 125.278 178.866C125.565 179.252 125.717 179.69 125.733 180.18H124.594ZM127.269 178.795V177.751H134.556V178.795H131.501V187.468H130.324V178.795H127.269ZM135.636 187.468H134.402L137.97 177.751H139.185L142.753 187.468H141.519L138.615 179.288H138.539L135.636 187.468ZM136.091 183.672H141.064V184.716H136.091V183.672ZM142.6 178.795V177.751H149.887V178.795H146.832V187.468H145.655V178.795H142.6ZM151.703 187.468V177.751H157.567V178.795H152.88V182.078H157.263V183.122H152.88V186.424H157.643V187.468H151.703Z" fill="black"/>
</svg>
