<svg width="154" height="132" viewBox="0 0 154 132" fill="none" xmlns="http://www.w3.org/2000/svg">
<path d="M51.8733 28.5061V69.453H110.192V24.1632L82.5835 3.99996L51.8733 28.5061Z" stroke="#003574" stroke-width="6.20408"/>
<path d="M30.5041 121.269H25.2298L32.0805 100.965H38.6139L45.4646 121.269H40.1903L35.4216 106.081H35.2629L30.5041 121.269ZM29.8002 113.279H40.8248V117.006H29.8002V113.279ZM65.127 108.321H60.1699C60.1038 107.813 59.9683 107.353 59.7634 106.943C59.5585 106.534 59.2875 106.183 58.9504 105.892C58.6133 105.602 58.2135 105.38 57.7508 105.228C57.2948 105.07 56.7891 104.99 56.2339 104.99C55.2491 104.99 54.3998 105.232 53.686 105.714C52.9788 106.196 52.4335 106.894 52.0501 107.806C51.6734 108.718 51.485 109.822 51.485 111.117C51.485 112.466 51.6767 113.596 52.0601 114.508C52.45 115.413 52.9953 116.097 53.6959 116.56C54.4031 117.016 55.2392 117.244 56.2042 117.244C56.7462 117.244 57.2386 117.175 57.6814 117.036C58.1309 116.897 58.5241 116.696 58.8612 116.431C59.2049 116.16 59.4858 115.833 59.7039 115.45C59.9286 115.06 60.0839 114.62 60.1699 114.131L65.127 114.161C65.041 115.06 64.78 115.945 64.3437 116.818C63.9141 117.69 63.3226 118.487 62.5691 119.207C61.8156 119.921 60.8969 120.489 59.813 120.912C58.7356 121.335 57.4996 121.547 56.1051 121.547C54.2676 121.547 52.6219 121.144 51.1678 120.337C49.7203 119.524 48.5769 118.341 47.7375 116.788C46.8981 115.235 46.4784 113.345 46.4784 111.117C46.4784 108.883 46.9047 106.99 47.7573 105.436C48.6099 103.883 49.7633 102.703 51.2174 101.897C52.6714 101.091 54.3007 100.688 56.1051 100.688C57.3344 100.688 58.4712 100.859 59.5155 101.203C60.5598 101.54 61.4785 102.036 62.2717 102.69C63.0648 103.338 63.7092 104.134 64.2049 105.079C64.7007 106.025 65.008 107.105 65.127 108.321ZM86.3656 108.321H81.4085C81.3425 107.813 81.207 107.353 81.0021 106.943C80.7972 106.534 80.5262 106.183 80.1891 105.892C79.852 105.602 79.4521 105.38 78.9895 105.228C78.5334 105.07 78.0278 104.99 77.4726 104.99C76.4878 104.99 75.6385 105.232 74.9247 105.714C74.2175 106.196 73.6722 106.894 73.2888 107.806C72.9121 108.718 72.7237 109.822 72.7237 111.117C72.7237 112.466 72.9154 113.596 73.2987 114.508C73.6887 115.413 74.234 116.097 74.9346 116.56C75.6418 117.016 76.4779 117.244 77.4429 117.244C77.9848 117.244 78.4773 117.175 78.9201 117.036C79.3695 116.897 79.7628 116.696 80.0999 116.431C80.4436 116.16 80.7245 115.833 80.9426 115.45C81.1673 115.06 81.3226 114.62 81.4085 114.131L86.3656 114.161C86.2797 115.06 86.0186 115.945 85.5824 116.818C85.1528 117.69 84.5613 118.487 83.8078 119.207C83.0543 119.921 82.1356 120.489 81.0516 120.912C79.9743 121.335 78.7383 121.547 77.3437 121.547C75.5063 121.547 73.8605 121.144 72.4065 120.337C70.959 119.524 69.8156 118.341 68.9762 116.788C68.1367 115.235 67.717 113.345 67.717 111.117C67.717 108.883 68.1434 106.99 68.996 105.436C69.8486 103.883 71.002 102.703 72.456 101.897C73.9101 101.091 75.5393 100.688 77.3437 100.688C78.5731 100.688 79.7099 100.859 80.7542 101.203C81.7985 101.54 82.7172 102.036 83.5104 102.69C84.3035 103.338 84.9479 104.134 85.4436 105.079C85.9393 106.025 86.2467 107.105 86.3656 108.321ZM108.338 111.117C108.338 113.351 107.908 115.245 107.049 116.798C106.19 118.351 105.027 119.531 103.559 120.337C102.099 121.144 100.459 121.547 98.6419 121.547C96.8177 121.547 95.1752 121.14 93.7145 120.328C92.2539 119.515 91.0939 118.335 90.2347 116.788C89.382 115.235 88.9557 113.345 88.9557 111.117C88.9557 108.883 89.382 106.99 90.2347 105.436C91.0939 103.883 92.2539 102.703 93.7145 101.897C95.1752 101.091 96.8177 100.688 98.6419 100.688C100.459 100.688 102.099 101.091 103.559 101.897C105.027 102.703 106.19 103.883 107.049 105.436C107.908 106.99 108.338 108.883 108.338 111.117ZM103.321 111.117C103.321 109.795 103.133 108.678 102.756 107.766C102.386 106.854 101.851 106.163 101.15 105.694C100.456 105.225 99.6201 104.99 98.6419 104.99C97.6703 104.99 96.8342 105.225 96.1336 105.694C95.433 106.163 94.8943 106.854 94.5176 107.766C94.1475 108.678 93.9624 109.795 93.9624 111.117C93.9624 112.439 94.1475 113.556 94.5176 114.468C94.8943 115.38 95.433 116.071 96.1336 116.54C96.8342 117.01 97.6703 117.244 98.6419 117.244C99.6201 117.244 100.456 117.01 101.15 116.54C101.851 116.071 102.386 115.38 102.756 114.468C103.133 113.556 103.321 112.439 103.321 111.117ZM128.484 100.965V121.269H124.32L116.24 109.551H116.111V121.269H111.203V100.965H115.427L123.417 112.664H123.586V100.965H128.484Z" fill="#003574"/>
<path d="M1 94.5795C1 94.5795 55.3797 81.0027 78.2408 81.551C101.106 82.0993 153 94.5795 153 94.5795M18.0612 77.5183C18.0612 77.5183 55.1027 69.1428 78.2408 69.1428C101.379 69.1428 140.902 77.5183 140.902 77.5183" stroke="#003574" stroke-width="6.20408"/>
<path d="M57.0359 129.947V123.179H59.3228C59.8515 123.179 60.2855 123.269 60.6248 123.45C60.9641 123.628 61.2153 123.874 61.3783 124.187C61.5413 124.5 61.6228 124.855 61.6228 125.254C61.6228 125.653 61.5413 126.007 61.3783 126.315C61.2153 126.623 60.9652 126.866 60.6281 127.042C60.291 127.216 59.8603 127.303 59.336 127.303H57.4853V126.563H59.3095C59.6709 126.563 59.9617 126.51 60.182 126.404C60.4045 126.299 60.5653 126.149 60.6645 125.955C60.7658 125.759 60.8165 125.525 60.8165 125.254C60.8165 124.983 60.7658 124.746 60.6645 124.544C60.5631 124.341 60.4012 124.185 60.1787 124.074C59.9562 123.962 59.662 123.906 59.2963 123.906H57.8555V129.947H57.0359ZM60.2216 126.907L61.8872 129.947H60.9355L59.2963 126.907H60.2216ZM62.9885 129.947V123.179H67.0732V123.906H63.8081V126.193H66.8617V126.92H63.8081V129.22H67.1261V129.947H62.9885ZM68.828 129.947H67.9688L70.4539 123.179H71.2999L73.7851 129.947H72.9259L70.9034 124.25H70.8505L68.828 129.947ZM69.1452 127.303H72.6086V128.03H69.1452V127.303ZM74.8393 129.947V123.179H75.6589V129.22H78.805V129.947H74.8393ZM86.3926 124.871C86.353 124.536 86.1921 124.276 85.9101 124.091C85.6281 123.906 85.2822 123.813 84.8725 123.813C84.5728 123.813 84.3107 123.862 84.0859 123.959C83.8634 124.056 83.6894 124.189 83.5638 124.359C83.4404 124.528 83.3787 124.721 83.3787 124.937C83.3787 125.118 83.4217 125.273 83.5076 125.403C83.5957 125.531 83.7081 125.638 83.8447 125.723C83.9813 125.807 84.1245 125.877 84.2743 125.932C84.4241 125.985 84.5618 126.028 84.6874 126.061L85.3748 126.246C85.551 126.292 85.7471 126.356 85.963 126.437C86.1811 126.519 86.3893 126.63 86.5876 126.771C86.7881 126.91 86.9533 127.088 87.0833 127.306C87.2133 127.525 87.2783 127.792 87.2783 128.109C87.2783 128.475 87.1825 128.806 86.9908 129.101C86.8013 129.396 86.5237 129.631 86.158 129.805C85.7945 129.979 85.3527 130.066 84.8328 130.066C84.3481 130.066 83.9284 129.988 83.5737 129.831C83.2212 129.675 82.9436 129.457 82.7409 129.177C82.5404 128.897 82.427 128.572 82.4005 128.202H83.2465C83.2686 128.458 83.3545 128.669 83.5043 128.837C83.6563 129.002 83.848 129.125 84.0793 129.207C84.3129 129.286 84.564 129.326 84.8328 129.326C85.1456 129.326 85.4266 129.275 85.6755 129.174C85.9245 129.07 86.1216 128.927 86.2671 128.744C86.4125 128.559 86.4852 128.343 86.4852 128.096C86.4852 127.872 86.4224 127.689 86.2968 127.548C86.1712 127.407 86.006 127.292 85.8011 127.204C85.5962 127.116 85.3748 127.039 85.1368 126.973L84.304 126.735C83.7753 126.583 83.3567 126.366 83.0482 126.084C82.7398 125.802 82.5856 125.433 82.5856 124.977C82.5856 124.598 82.688 124.267 82.8929 123.985C83.1 123.701 83.3776 123.481 83.7257 123.324C84.076 123.166 84.4671 123.086 84.8989 123.086C85.3351 123.086 85.7229 123.165 86.0622 123.321C86.4014 123.475 86.6702 123.687 86.8685 123.955C87.069 124.224 87.1748 124.529 87.1858 124.871H86.3926ZM88.2557 123.906V123.179H93.3317V123.906H91.2035V129.947H90.3839V123.906H88.2557ZM94.0836 129.947H93.2243L95.7095 123.179H96.5555L99.0407 129.947H98.1814L96.1589 124.25H96.1061L94.0836 129.947ZM94.4008 127.303H97.8642V128.03H94.4008V127.303ZM98.9341 123.906V123.179H104.01V123.906H101.882V129.947H101.062V123.906H98.9341ZM105.275 129.947V123.179H109.36V123.906H106.095V126.193H109.148V126.92H106.095V129.22H109.413V129.947H105.275Z" fill="#003574"/>
</svg>
